<?xml version="1.0" encoding="utf-8"?>
<!-- Generator: Adobe Illustrator 18.1.1, SVG Export Plug-In . SVG Version: 6.00 Build 0)  -->
<!DOCTYPE svg PUBLIC "-//W3C//DTD SVG 1.1//EN" "http://www.w3.org/Graphics/SVG/1.1/DTD/svg11.dtd">
<svg version="1.1" id="Guy_Carpenter" xmlns="http://www.w3.org/2000/svg" xmlns:xlink="http://www.w3.org/1999/xlink" x="0px"
	 y="0px" viewBox="0 0 592.2 46.8" enable-background="new 0 0 592.2 46.8" xml:space="preserve">
<g>
	<g>
		<polygon fill="#0080B2" points="60.8,46.8 40.5,35.1 60.8,23.4 		"/>
		<polygon fill="#86D3E4" points="20.3,46.8 0,35.1 20.3,23.4 		"/>
		<polygon fill="#00B0D3" points="40.5,35.1 60.8,23.4 60.8,0 20.3,23.4 		"/>
		<polygon fill="#86D3E4" points="81,35.1 60.8,23.4 81,11.7 		"/>
		<polygon fill="#00B0D3" points="60.8,46.8 81,35.1 60.8,23.4 		"/>
		<polygon fill="#00B0D3" points="20.3,0 0,11.7 0,35.1 20.3,23.4 		"/>
		<polygon fill="#FFFFFF" points="20.3,23.4 40.5,11.7 20.3,0 		"/>
		<polygon fill="#0080B2" points="20.3,46.8 40.5,35.1 20.3,23.4 		"/>
		<polygon fill="#FFFFFF" points="60.8,23.4 81,11.7 60.8,0 		"/>
	</g>
	<g>
		<g>
			<polygon fill="#FFFFFF" points="220.8,3.1 209.4,22.3 198.8,3.1 190.8,3.1 205.8,27.7 205.8,43.7 212.4,43.7 212.4,27.7 
				228.2,3.1 			"/>
			<path fill="#FFFFFF" d="M156.7,3.1v23.1c0,7,3.2,12.7,11,12.7c7.8,0,11-5.6,11-12.6V3.1h6.6v23.3c0,11.4-7.3,18.1-17.6,18.1
				c-10.3,0-17.5-6.7-17.5-17.9V3.1H156.7z"/>
			<path fill="#FFFFFF" d="M127.2,27.1h7.7c0,0,0,7.4,0,10.1c-1.5,0.5-4.8,1.7-9.5,1.7c-8.6,0-15.3-6.3-15.3-15.4
				C110.1,14,117,8,125.3,8c7.5,0,11.2,3.7,12.3,4.6c0.9-1.5,2.4-3.7,3.3-5.2c-1.4-0.9-6.6-5.1-15.1-5.1c-13.7,0-22.7,9.2-22.7,21.1
				c0,12.1,9.1,21.1,22.6,21.1c7.9,0,14.6-2.5,15.8-3c0-1.9,0-19.8,0-19.8h-14.3V27.1z"/>
		</g>
		<g>
			<path fill="#FFFFFF" d="M348.8,26.5c6.9-0.8,11.8-5.4,11.8-12.2c0-4.1-3.1-11.2-13.6-11.2h-16.6v40.7h6.6c0,0,0-35,0-35.5
				c1,0,8.4,0,8.4,0c5.9,0,8.6,2.8,8.6,6.8c0,3.9-3,6.8-9.4,6.8h-7.1l17.5,22h8.1L348.8,26.5z"/>
			<path fill="#FFFFFF" d="M578,26.5c6.9-0.8,11.8-5.4,11.8-12.2c0-4.1-3.1-11.2-13.6-11.2h-16.6v40.7h6.6c0,0,0-35,0-35.5
				c1,0,8.4,0,8.4,0c5.9,0,8.6,2.8,8.6,6.8c0,3.9-3,6.8-9.4,6.8h-7.1l17.5,22h8.1L578,26.5z"/>
			<path fill="#FFFFFF" d="M276.9,35.2c-1.2,0.8-4.2,3.6-11,3.6c-8.8,0-15.2-6.5-15.2-15.4c0-8.1,5.6-15.4,15.2-15.4
				c6.1,0,9.5,2.4,11,3.6l3.1-5.1c-1.2-0.7-5.8-4.2-13.8-4.2c-12.5,0-22.6,8.3-22.6,21c0,12.4,9.3,21.1,22.6,21.1
				c7.4,0,12.7-3.4,13.8-4.2L276.9,35.2z"/>
			<path fill="#FFFFFF" d="M300.7,3.1l-16.3,40.7h6.8l4.4-11.3h17.1l4.4,11.3h7L307.9,3.1H300.7z M304.3,10.4l6.4,16.6h-13l6.4-16.6
				H304.3z"/>
			<path fill="#FFFFFF" d="M485.3,3.1v5.3h12.9v35.4h6.6V8.4h12.9V3.1H485.3z"/>
			<path fill="#FFFFFF" d="M407.4,3.1v40.7h26.2v-5.3H414V25h16.8v-5.3H414V8.4h19.2V3.1H407.4z"/>
			<path fill="#FFFFFF" d="M525.2,3.1v40.7h26.2v-5.3h-19.6V25h16.8v-5.3h-16.8V8.4h19.2V3.1H525.2z"/>
			<path fill="#FFFFFF" d="M471,34.1L450.5,3h-8.8v40.7h6.6V10.9h0.1l21.7,32.8h7.6V3h-6.6v31.1H471z"/>
			<path fill="#FFFFFF" d="M370.1,3v40.7h6.6V28.5c0,0,4.1,0,7,0c12.3,0,16.2-7,16.2-13.1c0-6.3-4.6-12.3-14-12.3H370.1z M384.6,8.3
				c5.8,0,8.6,3.7,8.6,7.5c0,3.7-2.3,7.2-10.6,7.2c-2.7,0-6,0-6,0V8.3H384.6z"/>
		</g>
	</g>
</g>
</svg>
