<?xml version="1.0" encoding="utf-8"?>
<!-- Generator: Adobe Illustrator 18.1.1, SVG Export Plug-In . SVG Version: 6.00 Build 0)  -->
<!DOCTYPE svg PUBLIC "-//W3C//DTD SVG 1.1//EN" "http://www.w3.org/Graphics/SVG/1.1/DTD/svg11.dtd">
<svg version="1.1" id="Oliver_Wyman" xmlns="http://www.w3.org/2000/svg" xmlns:xlink="http://www.w3.org/1999/xlink" x="0px"
	 y="0px" viewBox="0 0 564.2 46.8" enable-background="new 0 0 564.2 46.8" xml:space="preserve">
<g>
	<g>
		<polygon fill="#0080B2" points="60.8,46.8 40.5,35.1 60.8,23.4 		"/>
		<polygon fill="#86D3E4" points="20.3,46.8 0,35.1 20.3,23.4 		"/>
		<polygon fill="#00B0D3" points="40.5,35.1 60.8,23.4 60.8,0 20.3,23.4 		"/>
		<polygon fill="#86D3E4" points="81,35.1 60.8,23.4 81,11.7 		"/>
		<polygon fill="#00B0D3" points="60.8,46.8 81,35.1 60.8,23.4 		"/>
		<polygon fill="#00B0D3" points="20.3,0 0,11.7 0,35.1 20.3,23.4 		"/>
		<polygon fill="#FFFFFF" points="20.3,23.4 40.5,11.7 20.3,0 		"/>
		<polygon fill="#0080B2" points="20.3,46.8 40.5,35.1 20.3,23.4 		"/>
		<polygon fill="#FFFFFF" points="60.8,23.4 81,11.7 60.8,0 		"/>
	</g>
	<g>
		<g>
			<path fill="#FFFFFF" d="M498.1,3l-16.3,40.7h6.8l4.4-11.3H510l4.4,11.3h7L505.3,3H498.1z M501.7,10.4l6.4,16.6h-13l6.4-16.6
				H501.7z"/>
			<path fill="#FFFFFF" d="M557.4,34.1L536.9,3h-8.8v40.7h6.6V10.9h0.1l21.7,32.8h7.6V3h-6.6v31.1H557.4z"/>
			<polygon fill="#FFFFFF" points="417.4,3 405.9,22.3 395.3,3 387.4,3 402.4,27.7 402.4,43.7 409,43.7 409,27.7 424.8,3 			"/>
			<path fill="#FFFFFF" d="M452.5,34.8L439.6,3.1h-9.3v40.7h6.3V11.9h0.1l12.7,31.8h5.6l13.3-32h0.1v32h6.4V3.1h-9.1l-13.1,31.7
				H452.5z"/>
			<path fill="#FFFFFF" d="M369.9,43.7h-5.2l-8.9-24.8l-8.9,24.8h-5.1L327.3,3h7.3l10,31.1h0.1l8.1-23.4L350.2,3h6.7L367.4,34h0.2
				L377,3h6.7L369.9,43.7z"/>
		</g>
		<g>
			<path fill="#FFFFFF" d="M297.7,26.5c6.8-0.8,11.8-5.4,11.8-12.2c0-4.2-3.1-11.2-13.6-11.2h-16.6v40.7h6.6c0,0,0-35,0-35.5
				c1,0,8.4,0,8.4,0c5.9,0,8.6,2.8,8.6,6.8c0,3.9-3,6.8-9.4,6.8h-7.1l17.5,22h8.1L297.7,26.5z"/>
			<path fill="#FFFFFF" d="M186.9,3v40.7h6.7V9.4V3H186.9z"/>
			<path fill="#FFFFFF" d="M155.3,3v40.7h24.4v-5.3h-17.8V3H155.3z"/>
			<path fill="#FFFFFF" d="M125.5,2.3c-13,0-22.4,8.9-22.4,21.1c0,12.2,9.4,21.1,22.4,21.1c13,0,22.4-8.9,22.4-21.1
				C147.9,11.2,138.5,2.3,125.5,2.3z M125.5,39c-8.5,0-15.4-6.5-15.4-15.6c0-9,6.9-15.5,15.4-15.5c8.4,0,15.3,6.5,15.3,15.5
				C140.8,32.4,133.9,39,125.5,39z"/>
			<path fill="#FFFFFF" d="M245.1,3v40.7h26.2v-5.3h-19.6V25h16.8v-5.3h-16.8V8.4h19.2V3H245.1z"/>
			<polygon fill="#FFFFFF" points="232.3,3 219.9,34.7 219.8,34.7 207,3 199.4,3 217,43.7 222,43.7 239.4,3 			"/>
		</g>
	</g>
</g>
</svg>
