<?xml version="1.0" encoding="utf-8"?>
<!-- Generator: Adobe Illustrator 18.1.1, SVG Export Plug-In . SVG Version: 6.00 Build 0)  -->
<!DOCTYPE svg PUBLIC "-//W3C//DTD SVG 1.1//EN" "http://www.w3.org/Graphics/SVG/1.1/DTD/svg11.dtd">
<svg version="1.1" id="Marsh" xmlns="http://www.w3.org/2000/svg" xmlns:xlink="http://www.w3.org/1999/xlink" x="0px" y="0px"
	 viewBox="0 0 311.4 46.8" enable-background="new 0 0 311.4 46.8" xml:space="preserve">
<g>
	<g>
		<polygon fill="#0080B2" points="60.8,46.8 40.5,35.1 60.8,23.4 		"/>
		<polygon fill="#86D3E4" points="20.3,46.8 0,35.1 20.3,23.4 		"/>
		<polygon fill="#00B0D3" points="40.5,35.1 60.8,23.4 60.8,0 20.3,23.4 		"/>
		<polygon fill="#86D3E4" points="81,35.1 60.8,23.4 81,11.7 		"/>
		<polygon fill="#00B0D3" points="60.8,46.8 81,35.1 60.8,23.4 		"/>
		<polygon fill="#00B0D3" points="20.3,0 0,11.7 0,35.1 20.3,23.4 		"/>
		<polygon fill="#FFFFFF" points="20.3,23.4 40.5,11.7 20.3,0 		"/>
		<polygon fill="#0080B2" points="20.3,46.8 40.5,35.1 20.3,23.4 		"/>
		<polygon fill="#FFFFFF" points="60.8,23.4 81,11.7 60.8,0 		"/>
	</g>
	<g>
		<path fill="#FFFFFF" d="M219.9,26.5c6.9-0.8,11.8-5.4,11.8-12.2c0-4.1-3.1-11.2-13.6-11.2h-16.6v40.7h6.6c0,0,0-35,0-35.5
			c1,0,8.4,0,8.4,0c5.9,0,8.6,2.8,8.6,6.8c0,3.9-3,6.8-9.4,6.8h-7.1l17.5,22h8.1L219.9,26.5z"/>
		<path fill="#FFFFFF" d="M171.8,3.1l-16.3,40.7h6.8l4.4-11.3h17.1l4.4,11.3h7L179,3.1H171.8z M175.4,10.4l6.4,16.6h-13l6.4-16.6
			H175.4z"/>
		<path fill="#FFFFFF" d="M126.6,34.8L113.8,3.1h-9.3v40.7h6.3V11.9h0.1l12.7,31.8h5.6l13.3-32h0.1v32h6.4V3.1h-9.2l-13.1,31.7
			H126.6z"/>
		<path fill="#FFFFFF" d="M239,39.8c1.6,1.2,6.8,4.7,15,4.7c8.7,0,14.8-4.3,14.8-11.5c0-7-6.8-10.2-12.6-12.9
			c-4.6-2.1-8.8-3.7-8.8-7.1c0-3.3,2.7-5.4,7.3-5.4c6.1,0,9.4,2.6,10.9,3.4l2.9-5c-1.9-1.1-6.1-3.7-13.6-3.7
			c-8.7,0-14.3,4.3-14.3,10.9c0,6.8,6.6,9.7,12.1,12.2c5.2,2.4,9.2,4.2,9.2,7.9c0,3.8-3.2,5.8-8,5.8c-6.2,0-10.8-3.6-11.6-4.2
			L239,39.8z"/>
		<path fill="#FFFFFF" d="M304.8,3v16.6h-21.4V3h-6.6v40.7h6.6V25h21.4v18.7h6.6V3H304.8z"/>
	</g>
</g>
</svg>
