<?xml version="1.0" encoding="utf-8"?>
<!-- Generator: Adobe Illustrator 18.1.1, SVG Export Plug-In . SVG Version: 6.00 Build 0)  -->
<!DOCTYPE svg PUBLIC "-//W3C//DTD SVG 1.1//EN" "http://www.w3.org/Graphics/SVG/1.1/DTD/svg11.dtd">
<svg version="1.1" id="Mercer" xmlns="http://www.w3.org/2000/svg" xmlns:xlink="http://www.w3.org/1999/xlink" x="0px" y="0px"
	 viewBox="0 0 339.2 46.8" enable-background="new 0 0 339.2 46.8" xml:space="preserve">
<g>
	<g>
		<polygon fill="#0080B2" points="60.8,46.8 40.5,35.1 60.8,23.4 		"/>
		<polygon fill="#86D3E4" points="20.3,46.8 0,35.1 20.3,23.4 		"/>
		<polygon fill="#00B0D3" points="40.5,35.1 60.8,23.4 60.8,0 20.3,23.4 		"/>
		<polygon fill="#86D3E4" points="81,35.1 60.8,23.4 81,11.7 		"/>
		<polygon fill="#00B0D3" points="60.8,46.8 81,35.1 60.8,23.4 		"/>
		<polygon fill="#00B0D3" points="20.3,0 0,11.7 0,35.1 20.3,23.4 		"/>
		<polygon fill="#FFFFFF" points="20.3,23.4 40.5,11.7 20.3,0 		"/>
		<polygon fill="#0080B2" points="20.3,46.8 40.5,35.1 20.3,23.4 		"/>
		<polygon fill="#FFFFFF" points="60.8,23.4 81,11.7 60.8,0 		"/>
	</g>
	<g>
		<path fill="#FFFFFF" d="M211.4,26.5c6.9-0.8,11.8-5.4,11.8-12.2c0-4.1-3.1-11.2-13.6-11.2h-16.6v40.7h6.6c0,0,0-35,0-35.5
			c1,0,8.4,0,8.4,0c5.9,0,8.6,2.8,8.6,6.8c0,3.9-3,6.7-9.4,6.7H200l17.5,22h8.1L211.4,26.5z"/>
		<path fill="#FFFFFF" d="M158.5,3v40.7h26.2v-5.3h-19.6V25h16.8v-5.3h-16.8V8.4h19.2V3H158.5z"/>
		<path fill="#FFFFFF" d="M261.8,35.2c-1.2,0.8-4.2,3.6-11,3.6c-8.8,0-15.2-6.5-15.2-15.4c0-8.1,5.6-15.4,15.2-15.4
			c6.1,0,9.5,2.4,11,3.6l3.1-5.1c-1.2-0.7-5.8-4.2-13.8-4.2c-12.5,0-22.6,8.3-22.6,21c0,12.4,9.3,21.1,22.6,21.1
			c7.4,0,12.6-3.4,13.8-4.2L261.8,35.2z"/>
		<path fill="#FFFFFF" d="M324.9,26.5c6.9-0.8,11.8-5.4,11.8-12.2c0-4.1-3.1-11.2-13.6-11.2h-16.6v40.7h6.6c0,0,0-35,0-35.5
			c1,0,8.4,0,8.4,0c5.9,0,8.6,2.8,8.6,6.8c0,3.9-3,6.7-9.4,6.7h-7.1l17.5,22h8.1L324.9,26.5z"/>
		<path fill="#FFFFFF" d="M272,3v40.7h26.2v-5.3h-19.6V25h16.8v-5.3h-16.8V8.4h19.2V3H272z"/>
		<path fill="#FFFFFF" d="M126.6,34.8L113.8,3.1h-9.3v40.7h6.3V11.9h0.1l12.7,31.8h5.6l13.3-32h0.1v32h6.4V3.1h-9.2l-13.1,31.7
			H126.6z"/>
	</g>
</g>
</svg>
