<?xml version="1.0" encoding="utf-8"?>
<!-- Generator: Adobe Illustrator 18.0.0, SVG Export Plug-In . SVG Version: 6.00 Build 0)  -->
<!DOCTYPE svg PUBLIC "-//W3C//DTD SVG 1.1//EN" "http://www.w3.org/Graphics/SVG/1.1/DTD/svg11.dtd">
<svg version="1.1" id="Layer_1" xmlns="http://www.w3.org/2000/svg" xmlns:xlink="http://www.w3.org/1999/xlink" x="0px" y="0px"
	 viewBox="0 0 188 66" enable-background="new 0 0 188 66" xml:space="preserve">
<g>
	<g>
		<polygon fill="#85D2E3" points="36.7,46.9 24.5,39.8 36.7,32.7 		"/>
		<polygon fill="#0080B2" points="12.2,46.9 0,39.8 12.2,32.7 		"/>
		<polygon fill="#00AFD3" points="24.5,39.8 36.7,32.7 36.7,18.6 12.2,32.7 		"/>
		<polygon fill="#0080B2" points="48.9,39.8 36.7,32.7 48.9,25.7 		"/>
		<polygon fill="#00AFD3" points="36.7,46.9 48.9,39.8 36.7,32.7 		"/>
		<polygon fill="#00AFD3" points="12.2,18.6 0,25.7 0,39.8 12.2,32.7 		"/>
		<polygon fill="#004180" points="12.2,32.7 24.5,25.7 12.2,18.6 		"/>
		<polygon fill="#85D2E3" points="12.2,46.9 24.5,39.8 12.2,32.7 		"/>
		<polygon fill="#004180" points="36.7,32.7 48.9,25.7 36.7,18.6 		"/>
	</g>
	<g>
		<path fill="#00AFD3" d="M132.8,34.6c4.1-0.5,7.1-3.2,7.1-7.4c0-2.5-1.8-6.8-8.2-6.8h-10V45h4c0,0,0-21.1,0-21.4c0.6,0,5.1,0,5.1,0
			c3.5,0,5.2,1.7,5.2,4.1c0,2.4-1.8,4.1-5.7,4.1h-4.3L136.5,45h4.9L132.8,34.6z"/>
		<path fill="#00AFD3" d="M103.8,20.5L93.9,45H98l2.6-6.8h10.3l2.6,6.8h4.2l-9.7-24.6H103.8z M105.9,24.9l3.9,10h-7.9l3.9-10H105.9z
			"/>
		<path fill="#00AFD3" d="M76.4,39.6l-7.7-19.2h-5.6V45h3.8V25.8H67L74.7,45H78l8.1-19.3h0.1V45H90V20.5h-5.5l-7.9,19.2H76.4z"/>
		<path fill="#00AFD3" d="M144.3,42.6c1,0.7,4.1,2.8,9,2.8c5.3,0,8.9-2.6,8.9-6.9c0-4.3-4.1-6.1-7.6-7.8c-2.8-1.3-5.3-2.2-5.3-4.3
			c0-2,1.6-3.3,4.4-3.3c3.7,0,5.7,1.6,6.6,2.1l1.7-3c-1.2-0.6-3.7-2.3-8.2-2.3c-5.2,0-8.6,2.6-8.6,6.6c0,4.1,4,5.8,7.3,7.4
			c3.2,1.4,5.6,2.6,5.6,4.8c0,2.3-2,3.5-4.8,3.5c-3.7,0-6.5-2.2-7-2.5L144.3,42.6z"/>
		<path fill="#00AFD3" d="M184,20.5v10h-12.9v-10h-4V45h4V33.7H184V45h4V20.5H184z"/>
	</g>
</g>
</svg>
